<svg xmlns="http://www.w3.org/2000/svg" xmlns:xlink="http://www.w3.org/1999/xlink" viewBox="0 0 262.89 262.89"><defs><style>.cls-1{fill:#fff;stroke-miterlimit:10;stroke-width:10.08px;stroke:url(#linear-gradient);}.cls-2{fill:url(#linear-gradient-2);}</style><linearGradient id="linear-gradient" y1="131.45" x2="262.89" y2="131.45" gradientUnits="userSpaceOnUse"><stop offset="0" stop-color="#2b98f0"/><stop offset="0.33" stop-color="#2b94f0"/><stop offset="0.67" stop-color="#2b88f0"/><stop offset="1" stop-color="#2b74f0"/></linearGradient><linearGradient id="linear-gradient-2" x1="4.94" y1="135.93" x2="257.75" y2="135.93" xlink:href="#linear-gradient"/></defs><title>default user</title><g id="Layer_2" data-name="Layer 2"><g id="Layer_3" data-name="Layer 3"><circle class="cls-1" cx="131.45" cy="131.45" r="126.4"/><path class="cls-2" d="M171.4,169.23c-22.48,20.7-38.3,20-38.3,20s-15.81.67-38.3-20c0,0-43.31,12.68-58.52,50a126.49,126.49,0,0,0,57.5,37.42h75.13a126.55,126.55,0,0,0,59.82-40.14C212.58,181.29,171.4,169.23,171.4,169.23ZM133,184v0h.14v0c40.84-7.49,51.06-54.41,51.06-54.41C202.59,42.57,135.49,44,133.1,44,130.71,44,63.6,42.57,82,129.56,82,129.56,92.19,176.48,133,184Z"/></g></g></svg>